<?xml version="1.0" standalone="no"?><!DOCTYPE svg PUBLIC "-//W3C//DTD SVG 1.1//EN" "http://www.w3.org/Graphics/SVG/1.1/DTD/svg11.dtd"><svg t="1613276705350" class="icon" viewBox="0 0 1024 1024" version="1.1" xmlns="http://www.w3.org/2000/svg" p-id="1789" xmlns:xlink="http://www.w3.org/1999/xlink" width="200" height="200"><defs><style type="text/css"></style></defs><path d="M297.528889 744.675556L512 528.308148l214.471111 216.177778-160.995555 162.133333a75.662222 75.662222 0 0 1-107.330371 0l-160.616296-161.943703z" p-id="1790" fill="#2c2c2c"></path><path d="M853.333333 782.791111H170.666667c-62.767407 0-113.777778-51.38963-113.777778-114.725926V209.540741C56.888889 146.204444 107.899259 94.814815 170.666667 94.814815h682.666666c62.767407 0 113.777778 51.38963 113.777778 114.725926v458.714074c0 63.336296-51.01037 114.536296-113.777778 114.536296zM265.481481 381.534815c-31.478519 0-56.888889 25.6-56.888888 57.268148s25.41037 57.268148 56.888888 57.268148 56.888889-25.6 56.888889-57.268148-25.41037-57.268148-56.888889-57.268148z m246.518519 0c-31.478519 0-56.888889 25.6-56.888889 57.268148s25.41037 57.268148 56.888889 57.268148 56.888889-25.6 56.888889-57.268148-25.41037-57.268148-56.888889-57.268148z m246.518519 0c-31.478519 0-56.888889 25.6-56.888889 57.268148s25.41037 57.268148 56.888889 57.268148 56.888889-25.6 56.888888-57.268148-25.41037-57.268148-56.888888-57.268148z" p-id="1791" fill="#2c2c2c"></path></svg>