<?xml version="1.0" standalone="no"?><!DOCTYPE svg PUBLIC "-//W3C//DTD SVG 1.1//EN" "http://www.w3.org/Graphics/SVG/1.1/DTD/svg11.dtd"><svg t="1607742262896" class="icon" viewBox="0 0 1024 1024" version="1.1" xmlns="http://www.w3.org/2000/svg" p-id="9766" xmlns:xlink="http://www.w3.org/1999/xlink" width="200" height="200"><defs><style type="text/css"></style></defs><path d="M512 320c-106 0-192 86-192 192s86 192 192 192 192-86 192-192-86-192-192-192z m0 320c-70.8 0-128-57.2-128-128s57.2-128 128-128 128 57.2 128 128-57.2 128-128 128z" fill="#1296db" p-id="9767"></path><path d="M512 32C246.8 32 32 246.8 32 512s214.8 480 480 480 480-214.8 480-480S777.2 32 512 32z m0 896c-229.6 0-416-186.4-416-416S282.4 96 512 96s416 186.4 416 416-186.4 416-416 416zM937.2 41.2l-68 68c-12.4 12.4-12.4 32.8 0 45.2s32.8 12.4 45.2 0l68-68c12.4-12.4 12.4-32.8 0-45.2s-32.4-12.4-45.2 0z" fill="#1296db" p-id="9768"></path><path d="M768 256m-32 0a32 32 0 1 0 64 0 32 32 0 1 0-64 0Z" fill="#1296db" p-id="9769"></path></svg>