<?xml version="1.0" standalone="no"?><!DOCTYPE svg PUBLIC "-//W3C//DTD SVG 1.1//EN" "http://www.w3.org/Graphics/SVG/1.1/DTD/svg11.dtd"><svg t="1613275965272" class="icon" viewBox="0 0 1024 1024" version="1.1" xmlns="http://www.w3.org/2000/svg" p-id="1395" xmlns:xlink="http://www.w3.org/1999/xlink" width="200" height="200"><defs><style type="text/css"></style></defs><path d="M807.822222 56.888889H216.177778C190.957037 56.888889 170.666667 77.179259 170.666667 102.21037v819.768889c0 36.219259 40.580741 57.647407 70.731852 37.546667l245.38074-162.512593c15.36-10.05037 35.271111-10.05037 50.441482 0l245.38074 162.512593c30.340741 20.100741 70.731852-1.517037 70.731852-37.546667V102.21037C853.333333 77.179259 833.042963 56.888889 807.822222 56.888889z m-341.333333 455.49037h-136.533333c-25.220741 0-45.511111-20.29037-45.511112-45.511111s20.29037-45.511111 45.511112-45.511111h136.533333c25.220741 0 45.511111 20.29037 45.511111 45.511111s-20.29037 45.511111-45.511111 45.511111z m227.555555-182.044444H329.955556c-25.220741 0-45.511111-20.29037-45.511112-45.511111 0-25.220741 20.29037-45.511111 45.511112-45.511111h364.088888a45.511111 45.511111 0 0 1 0 91.022222z" p-id="1396" fill="#2c2c2c"></path></svg>