<?xml version="1.0" standalone="no"?><!DOCTYPE svg PUBLIC "-//W3C//DTD SVG 1.1//EN" "http://www.w3.org/Graphics/SVG/1.1/DTD/svg11.dtd"><svg t="1613275892002" class="icon" viewBox="0 0 1024 1024" version="1.1" xmlns="http://www.w3.org/2000/svg" p-id="1048" xmlns:xlink="http://www.w3.org/1999/xlink" width="200" height="200"><defs><style type="text/css"></style></defs><path d="M931.081481 416.426667L553.14963 74.334815C541.771852 62.577778 526.791111 56.888889 512 56.888889s-29.771852 5.688889-41.14963 17.445926L92.918519 416.426667c-10.998519 10.998519-17.066667 26.168889-17.066667 41.908148v449.611852C75.851852 940.562963 101.831111 967.111111 134.068148 967.111111h756.053333c32.047407 0 58.216296-26.548148 58.216297-59.354074v-449.422222c-0.18963-15.739259-6.257778-30.90963-17.256297-41.908148zM647.774815 853.333333H376.225185c-23.703704 0-42.856296-19.152593-42.856296-42.666666s19.152593-42.666667 42.856296-42.666667h271.739259c23.703704 0 42.856296 19.152593 42.856297 42.666667 0 23.703704-19.342222 42.666667-43.045926 42.666666z" p-id="1049" fill="#2c2c2c"></path></svg>