<?xml version="1.0" standalone="no"?><!DOCTYPE svg PUBLIC "-//W3C//DTD SVG 1.1//EN" "http://www.w3.org/Graphics/SVG/1.1/DTD/svg11.dtd"><svg t="1607742233833" class="icon" viewBox="0 0 1024 1024" version="1.1" xmlns="http://www.w3.org/2000/svg" p-id="8817" xmlns:xlink="http://www.w3.org/1999/xlink" width="200" height="200"><defs><style type="text/css"></style></defs><path d="M513.6 596.8c-140.8 0-256-115.2-256-256s115.2-256 256-256 256 115.2 256 256-115.2 256-256 256z m0-425.6c-94.4 0-171.2 76.8-171.2 171.2S420.8 512 513.6 512s171.2-76.8 171.2-171.2S608 171.2 513.6 171.2zM44.8 939.2c-12.8 0-25.6-4.8-33.6-17.6-17.6-17.6-12.8-46.4 4.8-59.2 140.8-115.2 315.2-179.2 499.2-179.2s358.4 64 494.4 179.2c17.6 17.6 20.8 43.2 4.8 59.2-17.6 17.6-43.2 20.8-59.2 4.8-121.6-102.4-278.4-158.4-441.6-158.4s-320 56-443.2 161.6c-4.8 4.8-17.6 9.6-25.6 9.6z" p-id="8818" fill="#bfbfbf"></path></svg>